<svg id="icons" xmlns="http://www.w3.org/2000/svg" viewBox="0 0 64 64"><title>wood-logs</title><g id="wood-logs"><g id="_Group_" data-name="&lt;Group&gt;"><path d="M55.79,30C59.22,30,62,33.58,62,38s-2.78,8-6.21,8-6.2-3.58-6.2-8S52.37,30,55.79,30Z" fill="#a3796a"/><path d="M55.79,46C59.22,46,62,49.58,62,54s-2.78,8-6.21,8-6.2-3.58-6.2-8S52.37,46,55.79,46Z" fill="#a3796a"/><path d="M49.59,30h6.2c-3.42,0-6.2,3.58-6.2,8,0-4.42-2.78-8-6.21-8h6.21Z" fill="#826458"/><path d="M55.79,46H43.38c3.43,0,6.21-3.58,6.21-8C49.59,42.42,52.37,46,55.79,46Z" fill="#826458"/><path d="M43.38,46H55.79c-3.42,0-6.2,3.58-6.2,8C49.59,49.58,46.81,46,43.38,46Z" fill="#826458"/><path d="M55.79,62H43.38c3.43,0,6.21-3.58,6.21-8C49.59,58.42,52.37,62,55.79,62Z" fill="#826458"/><path d="M48.76,14C52.2,14,55,17.58,55,22s-2.8,8-6.24,8-6.26-3.58-6.26-8S45.3,14,48.76,14Z" fill="#a3796a"/><path d="M9.17,14H48.76c-3.46,0-6.26,3.58-6.26,8s2.8,8,6.26,8H43.38a5.12,5.12,0,0,0-.87.08V30H9.17C6.86,30,5,26.42,5,22S6.86,14,9.17,14Z" fill="#826458"/><path d="M43.38,30c3.43,0,6.21,3.58,6.21,8s-2.78,8-6.21,8-6.21-3.58-6.21-8c0-4,2.32-7.38,5.34-7.92A5.12,5.12,0,0,1,43.38,30Z" fill="#a3796a"/><ellipse cx="43.38" cy="54" rx="6.21" ry="8" fill="#a3796a"/><path d="M43.38,46H6.14C3.85,46,2,42.42,2,38s1.85-8,4.14-8H42.5v.08c-3,.54-5.34,3.88-5.34,7.92C37.17,42.42,40,46,43.38,46Z" fill="#826458"/><path d="M10.28,46h33.1c-3.43,0-6.21,3.58-6.21,8s2.78,8,6.21,8H6.14C3.85,62,2,58.42,2,54s1.85-8,4.14-8Z" fill="#826458"/><path d="M6.14,46C3.85,46,2,49.58,2,54s1.85,8,4.14,8H43.38" fill="none" stroke="#70564c" stroke-miterlimit="10" stroke-width="2"/><path d="M55.79,62C59.22,62,62,58.42,62,54s-2.78-8-6.21-8" fill="none" stroke="#70564c" stroke-miterlimit="10" stroke-width="2"/><path d="M43.38,46c-3.43,0-6.21,3.58-6.21,8s2.78,8,6.21,8" fill="none" stroke="#70564c" stroke-miterlimit="10" stroke-width="2"/><line x1="10.28" y1="30" x2="42.5" y2="30" fill="none" stroke="#70564c" stroke-miterlimit="10" stroke-width="2"/><path d="M48.76,14H9.17C6.86,14,5,17.58,5,22s1.86,8,4.17,8" fill="none" stroke="#70564c" stroke-miterlimit="10" stroke-width="2"/><line x1="9" y1="18" x2="16" y2="18" fill="none" stroke="#70564c" stroke-miterlimit="10" stroke-width="2"/><line x1="21" y1="26" x2="32.08" y2="26" fill="none" stroke="#70564c" stroke-miterlimit="10" stroke-width="2"/><line x1="9" y1="26" x2="16" y2="26" fill="none" stroke="#70564c" stroke-miterlimit="10" stroke-width="2"/><line x1="11" y1="22" x2="14" y2="22" fill="none" stroke="#70564c" stroke-miterlimit="10" stroke-width="2"/><line x1="36" y1="18" x2="39" y2="18" fill="none" stroke="#70564c" stroke-miterlimit="10" stroke-width="2"/><line x1="37" y1="26" x2="39" y2="26" fill="none" stroke="#70564c" stroke-miterlimit="10" stroke-width="2"/><line x1="20" y1="22" x2="24" y2="22" fill="none" stroke="#70564c" stroke-miterlimit="10" stroke-width="2"/><line x1="19" y1="18" x2="31.04" y2="18" fill="none" stroke="#70564c" stroke-miterlimit="10" stroke-width="2"/><line x1="28" y1="22" x2="37" y2="22" fill="none" stroke="#70564c" stroke-miterlimit="10" stroke-width="2"/><path d="M48.76,14c-3.46,0-6.26,3.58-6.26,8s2.8,8,6.26,8S55,26.42,55,22,52.2,14,48.76,14Z" fill="none" stroke="#70564c" stroke-miterlimit="10" stroke-width="2"/><path d="M48.75,17.5c-1.66,0-3,2-3,4.5s1.34,4.5,3,4.5,3-2,3-4.5S50.41,17.5,48.75,17.5Z" fill="none" stroke="#b38474" stroke-miterlimit="10" stroke-width="2"/><path d="M43.5,33.5c-1.66,0-3,2-3,4.5s1.34,4.5,3,4.5,3-2,3-4.5S45.16,33.5,43.5,33.5Z" fill="none" stroke="#b38474" stroke-miterlimit="10" stroke-width="2"/><path d="M56,33.5c-1.66,0-3,2-3,4.5s1.34,4.5,3,4.5,3-2,3-4.5S57.66,33.5,56,33.5Z" fill="none" stroke="#b38474" stroke-miterlimit="10" stroke-width="2"/><path d="M43.5,49.5c-1.66,0-3,2-3,4.5s1.34,4.5,3,4.5,3-2,3-4.5S45.16,49.5,43.5,49.5Z" fill="none" stroke="#b38474" stroke-miterlimit="10" stroke-width="2"/><path d="M56,49.5c-1.66,0-3,2-3,4.5s1.34,4.5,3,4.5,3-2,3-4.5S57.66,49.5,56,49.5Z" fill="none" stroke="#b38474" stroke-miterlimit="10" stroke-width="2"/><path d="M55.79,46c-3.42,0-6.2,3.58-6.2,8,0-4.42-2.78-8-6.21-8" fill="none" stroke="#70564c" stroke-miterlimit="10" stroke-width="2"/><path d="M49.59,54c0,4.42,2.78,8,6.2,8H43.38C46.81,62,49.59,58.42,49.59,54Z" fill="none" stroke="#70564c" stroke-miterlimit="10" stroke-width="2"/><path d="M10.28,30H6.14C3.85,30,2,33.58,2,38s1.85,8,4.14,8H43.38" fill="none" stroke="#70564c" stroke-miterlimit="10" stroke-width="2"/><line x1="6" y1="34" x2="14" y2="34" fill="none" stroke="#70564c" stroke-miterlimit="10" stroke-width="2"/><line x1="14" y1="42" x2="27" y2="42" fill="none" stroke="#70564c" stroke-miterlimit="10" stroke-width="2"/><line x1="6" y1="42" x2="12" y2="42" fill="none" stroke="#70564c" stroke-miterlimit="10" stroke-width="2"/><line x1="7" y1="38" x2="11" y2="38" fill="none" stroke="#70564c" stroke-miterlimit="10" stroke-width="2"/><line x1="30" y1="34" x2="34.07" y2="34" fill="none" stroke="#70564c" stroke-miterlimit="10" stroke-width="2"/><line x1="29" y1="42" x2="33" y2="42" fill="none" stroke="#70564c" stroke-miterlimit="10" stroke-width="2"/><line x1="15" y1="38" x2="21" y2="38" fill="none" stroke="#70564c" stroke-miterlimit="10" stroke-width="2"/><line x1="17" y1="34" x2="27" y2="34" fill="none" stroke="#70564c" stroke-miterlimit="10" stroke-width="2"/><line x1="25" y1="38" x2="30.97" y2="38" fill="none" stroke="#70564c" stroke-miterlimit="10" stroke-width="2"/><line x1="6" y1="50" x2="14" y2="50" fill="none" stroke="#70564c" stroke-miterlimit="10" stroke-width="2"/><line x1="14" y1="58" x2="27" y2="58" fill="none" stroke="#70564c" stroke-miterlimit="10" stroke-width="2"/><line x1="6" y1="58" x2="12" y2="58" fill="none" stroke="#70564c" stroke-miterlimit="10" stroke-width="2"/><line x1="7" y1="54" x2="11" y2="54" fill="none" stroke="#70564c" stroke-miterlimit="10" stroke-width="2"/><line x1="30" y1="50" x2="34.07" y2="50" fill="none" stroke="#70564c" stroke-miterlimit="10" stroke-width="2"/><line x1="29" y1="58" x2="33" y2="58" fill="none" stroke="#70564c" stroke-miterlimit="10" stroke-width="2"/><line x1="15" y1="54" x2="21" y2="54" fill="none" stroke="#70564c" stroke-miterlimit="10" stroke-width="2"/><line x1="17" y1="50" x2="27" y2="50" fill="none" stroke="#70564c" stroke-miterlimit="10" stroke-width="2"/><line x1="25" y1="54" x2="30.97" y2="54" fill="none" stroke="#70564c" stroke-miterlimit="10" stroke-width="2"/><path d="M55.79,46C59.22,46,62,42.42,62,38s-2.78-8-6.21-8" fill="none" stroke="#70564c" stroke-miterlimit="10" stroke-width="2"/><path d="M43.38,30a5.12,5.12,0,0,0-.87.08c-3,.54-5.34,3.88-5.34,7.92,0,4.42,2.78,8,6.21,8" fill="none" stroke="#70564c" stroke-miterlimit="10" stroke-width="2"/><path d="M43.38,30H55.79c-3.42,0-6.2,3.58-6.2,8C49.59,33.58,46.81,30,43.38,30Z" fill="none" stroke="#70564c" stroke-miterlimit="10" stroke-width="2"/><path d="M49.59,38c0,4.42,2.78,8,6.2,8H43.38C46.81,46,49.59,42.42,49.59,38Z" fill="none" stroke="#70564c" stroke-miterlimit="10" stroke-width="2"/></g></g></svg>