<?xml version="1.0" encoding="UTF-8" standalone="no"?>
<svg
   height="24px"
   viewBox="0 -960 960 960"
   width="24px"
   fill="#e8eaed"
   version="1.1"
   id="svg1"
   sodipodi:docname="food.svg"
   inkscape:version="1.3.2 (091e20ef0f, 2023-11-25, custom)"
   xmlns:inkscape="http://www.inkscape.org/namespaces/inkscape"
   xmlns:sodipodi="http://sodipodi.sourceforge.net/DTD/sodipodi-0.dtd"
   xmlns="http://www.w3.org/2000/svg"
   xmlns:svg="http://www.w3.org/2000/svg">
  <defs
     id="defs1" />
  <sodipodi:namedview
     id="namedview1"
     pagecolor="#505050"
     bordercolor="#ffffff"
     borderopacity="1"
     inkscape:showpageshadow="0"
     inkscape:pageopacity="0"
     inkscape:pagecheckerboard="1"
     inkscape:deskcolor="#d1d1d1"
     inkscape:zoom="27.6036"
     inkscape:cx="11.991189"
     inkscape:cy="11.991189"
     inkscape:window-width="1477"
     inkscape:window-height="1064"
     inkscape:window-x="65"
     inkscape:window-y="0"
     inkscape:window-maximized="0"
     inkscape:current-layer="svg1" />
  <path
     d="M160-120q-33 0-56.5-23.5T80-200v-120h800v120q0 33-23.5 56.5T800-120H160Zm0-120v40h640v-40H160Zm320-180q-36 0-57 20t-77 20q-56 0-76-20t-56-20q-36 0-57 20t-77 20v-80q36 0 57-20t77-20q56 0 76 20t56 20q36 0 57-20t77-20q56 0 77 20t57 20q36 0 56-20t76-20q56 0 79 20t55 20v80q-56 0-75-20t-55-20q-36 0-58 20t-78 20q-56 0-77-20t-57-20ZM80-560v-40q0-115 108.5-177.5T480-840q183 0 291.5 62.5T880-600v40H80Zm400-200q-124 0-207.5 31T166-640h628q-23-58-106.5-89T480-760Zm0 520Zm0-400Z"
     id="path1"
     style="fill:#000000" />
</svg>
