<?xml version="1.0" encoding="UTF-8" standalone="no"?>
<svg
   height="24px"
   viewBox="0 -960 960 960"
   width="24px"
   fill="#e8eaed"
   version="1.1"
   id="svg1"
   sodipodi:docname="grass.svg"
   inkscape:version="1.3.2 (091e20ef0f, 2023-11-25, custom)"
   xmlns:inkscape="http://www.inkscape.org/namespaces/inkscape"
   xmlns:sodipodi="http://sodipodi.sourceforge.net/DTD/sodipodi-0.dtd"
   xmlns="http://www.w3.org/2000/svg"
   xmlns:svg="http://www.w3.org/2000/svg">
  <defs
     id="defs1" />
  <sodipodi:namedview
     id="namedview1"
     pagecolor="#505050"
     bordercolor="#ffffff"
     borderopacity="1"
     inkscape:showpageshadow="0"
     inkscape:pageopacity="0"
     inkscape:pagecheckerboard="1"
     inkscape:deskcolor="#d1d1d1"
     inkscape:zoom="9.8333333"
     inkscape:cx="12"
     inkscape:cy="12"
     inkscape:window-width="1477"
     inkscape:window-height="1064"
     inkscape:window-x="130"
     inkscape:window-y="0"
     inkscape:window-maximized="0"
     inkscape:current-layer="svg1" />
  <path
     d="M80-160v-80h230q-22-85-83.5-146.5T80-470q20-5 39.5-7.5T160-480q134 0 227 93t93 227H80Zm480 0q0-42-9-83.5T525-323q42-71 114.5-114T800-480q21 0 40.5 2.5T880-470q-85 22-146 83.5T650-240h230v80H560Zm-80-239q0-65 24-122t66-100.5q42-43.5 98.5-69.5T789-719q-56 35-98 86t-65 114q-44 21-80.5 51.5T480-399Zm-73-75q-12-9-24-17t-25-16q0-6 1-12.5t1-12.5q0-76-24-144t-68-124q66 27 114.5 77.5T457-606q-18 30-31 63.5T407-474Z"
     id="path1"
     style="fill:#000000" />
</svg>
