<?xml version="1.0" encoding="UTF-8" standalone="no"?>
<svg
   height="24px"
   viewBox="0 -960 960 960"
   width="24px"
   fill="#e8eaed"
   version="1.1"
   id="svg1"
   sodipodi:docname="machine.svg"
   inkscape:version="1.3.2 (091e20ef0f, 2023-11-25, custom)"
   xmlns:inkscape="http://www.inkscape.org/namespaces/inkscape"
   xmlns:sodipodi="http://sodipodi.sourceforge.net/DTD/sodipodi-0.dtd"
   xmlns="http://www.w3.org/2000/svg"
   xmlns:svg="http://www.w3.org/2000/svg">
  <defs
     id="defs1" />
  <sodipodi:namedview
     id="namedview1"
     pagecolor="#505050"
     bordercolor="#ffffff"
     borderopacity="1"
     inkscape:showpageshadow="0"
     inkscape:pageopacity="0"
     inkscape:pagecheckerboard="1"
     inkscape:deskcolor="#d1d1d1"
     inkscape:zoom="28.291667"
     inkscape:cx="12"
     inkscape:cy="12"
     inkscape:window-width="1920"
     inkscape:window-height="1015"
     inkscape:window-x="0"
     inkscape:window-y="0"
     inkscape:window-maximized="1"
     inkscape:current-layer="svg1" />
  <path
     d="M159-120v-120h124L181-574q-27-15-44.5-44T119-680q0-50 35-85t85-35q39 0 69.5 22.5T351-720h128v-40q0-17 11.5-28.5T519-800q9 0 17.5 4t14.5 12l68-64q9-9 21.5-11.5T665-856l156 72q12 6 16.5 17.5T837-744q-6 12-17.5 15.5T797-730l-144-66-94 88v56l94 86 144-66q11-5 23-1t17 15q6 12 1 23t-17 17l-156 74q-12 6-24.5 3.5T619-512l-68-64q-6 6-14.5 11t-17.5 5q-17 0-28.5-11.5T479-600v-40H351q-3 8-6.5 15t-9.5 15l200 370h144v120H159Zm80-520q17 0 28.5-11.5T279-680q0-17-11.5-28.5T239-720q-17 0-28.5 11.5T199-680q0 17 11.5 28.5T239-640Zm126 400h78L271-560h-4l98 320Zm78 0Z"
     id="path1"
     style="fill:#000000" />
</svg>
