<?xml version="1.0" encoding="UTF-8" standalone="no"?>
<!-- Created with Inkscape (http://www.inkscape.org/) -->

<svg
   width="116.78236mm"
   height="139.23235mm"
   viewBox="0 0 116.78236 139.23235"
   version="1.1"
   id="svg1"
   xml:space="preserve"
   inkscape:version="1.3.2 (091e20ef0f, 2023-11-25, custom)"
   sodipodi:docname="mech.svg"
   xmlns:inkscape="http://www.inkscape.org/namespaces/inkscape"
   xmlns:sodipodi="http://sodipodi.sourceforge.net/DTD/sodipodi-0.dtd"
   xmlns="http://www.w3.org/2000/svg"
   xmlns:svg="http://www.w3.org/2000/svg"><sodipodi:namedview
     id="namedview1"
     pagecolor="#505050"
     bordercolor="#ffffff"
     borderopacity="1"
     inkscape:showpageshadow="0"
     inkscape:pageopacity="0"
     inkscape:pagecheckerboard="1"
     inkscape:deskcolor="#d1d1d1"
     inkscape:document-units="mm"
     showguides="false"
     inkscape:zoom="0.62455238"
     inkscape:cx="157.71295"
     inkscape:cy="380.27235"
     inkscape:window-width="1920"
     inkscape:window-height="1015"
     inkscape:window-x="0"
     inkscape:window-y="0"
     inkscape:window-maximized="1"
     inkscape:current-layer="svg1" /><defs
     id="defs1" /><path
     style="fill:#000000;stroke-width:0.936974"
     d="m 54.097229,208.81625 c 0.108652,-3.07803 0.196441,-3.45464 0.974651,-4.1811 0.65734,-0.61363 1.200221,-0.79838 2.346064,-0.79838 h 1.490819 l 0.41791,-1.52937 c 0.22985,-0.84116 0.88068,-2.17001 1.4463,-2.95301 l 1.02838,-1.42364 v -8.66115 -2.84032 h 0.88195 c 0.88142,0 0.88194,-5.82283 0.88194,-8.89072 v -3.06988 l -1.3678,-0.20288 c -0.84979,-0.12604 -1.75163,-0.55444 -2.38125,-1.13115 l -1.01345,-0.92828 -0.10481,-11.12952 c -0.0919,-9.75641 -0.0341,-11.26034 0.46823,-12.18971 0.58726,-1.08648 2.29467,-2.03718 3.65865,-2.03718 0.64237,0 0.74043,-0.18459 0.74043,-1.3937 0,-1.34208 0.0392,-12.5062 1.05834,-12.5062 1.01913,0 3.704163,11.1641 3.704163,12.5062 0,1.38632 0.006,1.3937 1.23472,1.3937 1.22819,0 1.23472,-0.007 1.23472,-1.3937 v -6.68537 h 1.234727 3.88056 v 6.68537 c 0,1.28737 0.0686,1.3937 0.89946,1.3937 1.34091,0 2.90002,0.82226 3.50429,1.84813 0.885462,2.76218 0.53513,1.17847 0.53513,4.03637 h 2.64584 c 3.13597,0 2.39725,0.71859 2.09426,-2.29605 -0.586251,-5.83299 -0.85175,-6.68556 -1.90929,-6.68556 -0.9925,0 -3.42167,-2.00753 -3.86602,-3.19497 -0.28668,-0.76608 -3.19812,-11.93401 -3.19812,-12.37178 0,-0.0546 -0.79375,-0.0993 -1.76389,-0.0993 -1.25359,0 -1.76389,0.12208 -1.76389,0.42198 0,0.23208 0.39688,1.07441 0.88195,3.16535 0.48507,2.09096 0.88194,3.86899 0.88194,3.95122 0,0.0822 -0.95463,0.0889 -2.1214,0.0148 -2.21831,-0.14087 -3.43739,-0.70002 -4.65961,-2.1372 -0.82003,-0.96425 -11.950222,-43.359002 -11.996441,-45.859026 -0.05398,-2.919715 1.828605,-5.254238 5.093381,-6.316123 0.83228,-0.270702 7.70449,-2.26272 15.27157,-4.426702 l 13.75833,-3.934514 3.35139,0.01497 c 3.33785,0.01491 3.41246,0.03253 18.462457,4.36103 13.34751,3.83885 15.25671,4.467664 16.35905,5.388008 1.50674,1.257983 2.55316,3.132814 2.56946,4.603622 0.0216,1.945898 -11.28631,45.010365 -12.08196,46.157385 -0.87236,1.25758 -3.0433,2.19265 -5.11248,2.20203 -1.81439,0.008 -1.79466,0.1594 -0.61555,-4.71744 0.48408,-2.00213 0.88013,-2.65836 0.88013,-2.75181 0,-0.0934 -0.82636,-0.12778 -1.83637,-0.0763 l -1.83637,0.0936 -1.61367,5.78296 c -1.05586,3.78392 -1.88983,7.21129 -2.23974,7.68013 -0.71488,0.95785 -2.57907,2.04526 -3.50922,2.04697 -0.34564,6.4e-4 -0.7006,0.17537 -0.78879,0.38829 -0.12017,0.29013 -1.58139,7.78534 -1.58139,8.49367 0,0.0698 1.23031,0.0861 2.73403,0.0364 l 2.73402,-0.0905 c 0.548,-2.56984 -0.80568,-2.6398 1.21429,-4.62791 0.50189,-0.46824 1.42226,-0.88246 2.20486,-0.99232 1.31837,-0.18508 1.34335,-0.21378 1.34335,-1.54271 v -6.6458 h 4.05695 1.41111 v 6.68537 c 0,1.34208 0.0392,1.3937 1.05834,1.3937 1.01913,0 1.05833,-0.0516 1.05833,-1.3937 0,-1.38633 2.65283,-12.5062 3.88055,-12.5062 1.22819,0 1.23472,11.1195 1.23472,12.5062 0,1.2385 0.0884,1.39383 0.79375,1.39486 1.16055,0.002 3.05166,1.1162 3.44838,2.03226 0.20023,0.46235 0.34343,5.41311 0.34267,11.8463 -0.001,10.47137 -0.038,11.10488 -0.70035,12.05853 -0.51634,0.74349 -1.11526,1.10426 -2.29174,1.38051 l -1.59271,0.37398 v 3.03288 c 0,3.02859 0.001,8.8537 0.88195,8.8537 h 0.88194 v 2.99218 8.81301 l 0.88138,1.14022 c 0.48476,0.62713 1.04822,1.71344 1.25214,2.41402 0.20392,0.70058 0.43732,1.44799 0.51866,1.66092 0.086,0.22517 0.74961,0.38714 1.58612,0.38714 1.05663,0 1.66796,0.2017 2.30413,0.7602 0.81483,0.71536 0.86591,0.96198 0.86591,4.1811 v 3.42089 h -15.52223 -15.52222 v -3.3725 c 0,-4.09284 0.3658,-4.69911 2.99918,-4.97071 l 1.68541,-0.17384 0.47601,-1.63736 c 0.26181,-0.90054 0.87465,-2.15238 1.36188,-2.78185 l 0.88586,-1.14451 v -8.75488 -2.93403 h 0.88194 c 0.88128,0 0.88194,-5.82383 0.88194,-8.88347 v -3.06265 l -1.2878,-0.21209 c -0.70829,-0.11666 -1.74016,-0.60925 -2.29305,-1.09464 l -1.00526,-0.88253 v -4.35977 -4.35978 h -3.12705 -3.127037 l -0.22434,1.43693 c -0.12339,0.7903 -0.22434,1.84951 -0.22434,2.3538 0,0.62977 0.0076,1.86624 -1.087805,1.91078 -1.675251,0.0681 -3.047348,-0.0257 -6.402358,-0.0257 -5.29065,0 -4.336127,0.61883 -4.772867,-3.22652 l -0.26058,-2.29442 -3.08681,-0.0895 -3.08681,-0.0895 v 3.91407 c 0,2.92281 -0.14091,4.17478 -0.55642,4.9435 -0.57059,1.05563 -2.29645,2.00643 -3.64203,2.00643 -0.70237,0 -0.74043,0.15817 -0.74043,3.07654 v 8.89736 l 0.97013,0.098 0.97014,0.098 0.17639,3.00592 0.17639,8.82677 0.94126,1.56566 c 0.5177,0.86111 1.0513,2.0806 1.18579,2.70997 0.23689,1.10857 0.29191,1.14431 1.76141,1.14431 1.26075,0 1.67109,0.1609 2.43018,0.95289 0.85472,0.89178 0.91331,1.15998 0.91331,4.1811 v 3.2282 H 69.707643 53.977822 Z M 73.44302,177.51134 v -3.09711 H 72.2083 70.97358 v 3.09711 8.91794 h 1.23472 1.23472 z m 42.33333,0 v -3.09711 h -1.05833 -1.05834 v 3.09711 8.91794 h 1.05834 1.05833 z m -39.158327,-7.86919 v -0.77428 h -6.87917 -6.87916 v 0.77428 0.77427 h 6.87916 6.87917 z m 47.561337,-0.60657 0.11273,-0.69685 h -7.08009 -7.08009 v 0.78082 0.78083 l 6.96736,-0.084 c 6.92387,-0.0835 6.96806,-0.0883 7.08009,-0.78083 z M 92.493023,103.42674 V 91.348021 h -0.85888 c -1.68424,0 -7.996097,0.934505 -9.685167,1.685934 -3.81027,1.695096 -4.84952,3.447058 -4.48878,7.567155 0.41978,4.79455 0.807371,6.76361 2.416782,9.38949 1.931921,1.47628 8.635898,2.21744 12.616045,2.18162 z m 1.904558,8.81712 c 7.438409,-0.20366 11.057899,-0.46703 13.228299,-3.19995 1.42042,-3.56552 1.79131,-6.33242 1.86939,-9.516819 0.0492,-2.00583 -0.0781,-2.715743 -0.63785,-3.557137 -1.5263,-2.294341 -7.58177,-4.004803 -12.452977,-4.488637 l -2.14753,-0.213304 v 12.118727 c 0,4.13667 0.09091,6.19525 0.140668,8.85712 z m -56.45642,50.04393 c 0.123088,-1.64894 0.300837,-3.18383 0.394998,-3.41087 0.10184,-0.24556 -0.291149,-0.60102 -0.969994,-0.87737 -0.852244,-0.34694 -1.171544,-0.69917 -1.261053,-1.39115 -0.200549,-1.55039 1.401974,-12.64591 1.935003,-13.39755 0.327448,-0.46174 0.838034,-0.69685 1.513367,-0.69685 1.203539,0 0.987126,0.85968 2.494907,-9.91076 1.477554,-10.55449 1.520917,-9.37606 -0.355364,-9.65735 -1.765889,-0.26474 -3.18233,-1.39119 -3.163814,-2.51607 0.0062,-0.37377 0.237188,-2.06789 0.51341,-3.76471 0.276223,-1.69683 0.446652,-3.13392 0.378732,-3.19355 -0.06792,-0.0596 -1.027392,-0.19032 -2.132159,-0.29042 -1.230899,-0.11153 -2.081407,-0.34843 -2.196527,-0.61179 -0.211628,-0.48418 1.124008,-8.45011 1.715518,-10.83365 0.916441,-3.692866 4.112776,-7.175577 8.05984,-8.781962 1.499219,-0.610153 2.66201,-0.817792 5.115278,-0.91343 l 3.175,-0.123775 4.324942,15.462257 c 2.68205,9.58869 4.272218,17.62521 4.207788,17.68178 -0.0644,0.0565 -2.06153,-0.11809 -4.437988,-0.38814 -2.376457,-0.27004 -4.362603,-0.44273 -4.413657,-0.38375 -0.156349,0.18061 -2.739238,18.89813 -2.617371,18.96739 0.06273,0.0357 0.550626,0.3046 1.084202,0.59766 0.777001,0.42675 0.96978,0.76261 0.968334,1.6871 -0.0034,2.18894 -1.689005,12.78252 -2.103664,13.22115 -0.228584,0.24181 -0.839862,0.48276 -1.358395,0.53545 -1.009699,0.10262 -0.949124,-0.0689 -1.657935,4.69426 -2.866453,-0.34459 -4.401683,-0.46968 -9.213398,-1.7039 z m 101.681679,0.82199 c -0.57268,-3.86822 -0.57387,-3.87139 -1.45091,-3.87139 -0.77231,0 -1.93543,-0.71189 -1.93369,-1.18353 4.2e-4,-0.1156 -0.40507,-3.09711 -0.9011,-6.62561 -0.97033,-6.90241 -0.91591,-7.4976 0.71844,-7.85772 0.69834,-0.15387 0.8256,-0.34001 0.69066,-1.01022 -0.091,-0.45187 -0.71416,-4.70815 -1.38486,-9.4584 -0.67069,-4.75026 -1.28481,-8.69421 -1.36469,-8.76434 -0.0799,-0.0701 -2.08779,0.095 -4.462,0.36705 -2.37422,0.27201 -4.35199,0.45297 -4.39506,0.40214 -0.0431,-0.0508 1.87683,-7.96683 4.26644,-17.5911 2.3896,-9.62427 4.34861,-15.430707 4.35334,-15.490241 0.005,-0.05953 1.39767,-0.05885 3.09542,0.0015 2.5785,0.09169 3.47745,0.271981 5.45915,1.094878 2.89919,1.203875 5.16733,3.181778 6.62059,5.773372 0.94161,1.679201 1.21571,0.701713 2.13336,6.749831 0.75604,4.98295 0.94199,6.99996 0.65946,7.15326 -0.21642,0.11742 -1.19234,0.29655 -2.16871,0.39807 -0.97638,0.10153 -1.84524,0.24604 -1.9308,0.32116 -0.0856,0.0752 0.0456,1.74631 0.29139,3.71378 0.3652,2.92288 0.36305,3.71483 -0.0117,4.32964 -0.54219,0.88942 -1.77374,1.44028 -3.22,1.44028 -0.57295,0 -1.04798,0.10452 -1.05562,0.23228 -0.008,0.12776 0.58332,4.51791 1.31326,9.75589 l 1.32715,9.52362 h 0.9546 c 0.83343,0 2.06332,0.67433 2.06332,1.13129 0,0.0868 0.40524,3.06879 0.90054,6.62653 0.97026,6.96951 0.91651,7.54874 -0.73433,7.9125 -1.00976,0.22249 -0.98801,0.0615 -0.47913,3.5451 z"
     id="path1"
     sodipodi:nodetypes="ssscsscccsscsscsssssssscccssscssssssssscsssscssscscssscsssssccssscccssssscscsscsscccsssssscccsscsscccsscsscccccssssscccsssscccccssssscccscccccccccccccccccccccccccccccccccsccccssscccccscscsccssssssscssssssscssssssssscccssssssssssccssssssccscscsssscc"
     transform="translate(-35.070164,-72.966585)"
     inkscape:label="mech" /></svg>
