<?xml version="1.0" encoding="UTF-8" standalone="no"?>
<svg
   height="24px"
   viewBox="0 -960 960 960"
   width="24px"
   fill="#e8eaed"
   version="1.1"
   id="svg1"
   sodipodi:docname="mill.svg"
   inkscape:version="1.3.2 (091e20ef0f, 2023-11-25, custom)"
   xmlns:inkscape="http://www.inkscape.org/namespaces/inkscape"
   xmlns:sodipodi="http://sodipodi.sourceforge.net/DTD/sodipodi-0.dtd"
   xmlns="http://www.w3.org/2000/svg"
   xmlns:svg="http://www.w3.org/2000/svg">
  <defs
     id="defs1" />
  <sodipodi:namedview
     id="namedview1"
     pagecolor="#505050"
     bordercolor="#ffffff"
     borderopacity="1"
     inkscape:showpageshadow="0"
     inkscape:pageopacity="0"
     inkscape:pagecheckerboard="1"
     inkscape:deskcolor="#d1d1d1"
     inkscape:zoom="28.291667"
     inkscape:cx="12"
     inkscape:cy="12"
     inkscape:window-width="1920"
     inkscape:window-height="1015"
     inkscape:window-x="0"
     inkscape:window-y="0"
     inkscape:window-maximized="1"
     inkscape:current-layer="svg1" />
  <path
     d="M360-80v-40q0-32 24-53.5t56-26.5v-286q-22-8-38.5-23T374-544l-76 20q-36 8-68.5-6T188-578l174-44q8-41 38-68t72-30l24-90q10-35 38.5-55.5T598-878l-50 180q25 16 38.5 42t13.5 56q0 13-3 25.5t-7 24.5l54 56q25 26 29.5 61T654-374L534-494q-3 3-6.5 4.5T520-486v286q32 5 56 26.5t24 53.5v40H360Zm120-460q25 0 42.5-17.5T540-600q0-25-17.5-42.5T480-660q-25 0-42.5 17.5T420-600q0 25 17.5 42.5T480-540Z"
     id="path1"
     style="fill:#000000" />
</svg>
