<?xml version="1.0" encoding="UTF-8" standalone="no"?>
<svg
   height="24px"
   viewBox="0 -960 960 960"
   width="24px"
   fill="#e8eaed"
   version="1.1"
   id="svg1"
   sodipodi:docname="oil-barrel.svg"
   inkscape:version="1.3.2 (091e20ef0f, 2023-11-25, custom)"
   xmlns:inkscape="http://www.inkscape.org/namespaces/inkscape"
   xmlns:sodipodi="http://sodipodi.sourceforge.net/DTD/sodipodi-0.dtd"
   xmlns="http://www.w3.org/2000/svg"
   xmlns:svg="http://www.w3.org/2000/svg">
  <defs
     id="defs1" />
  <sodipodi:namedview
     id="namedview1"
     pagecolor="#505050"
     bordercolor="#ffffff"
     borderopacity="1"
     inkscape:showpageshadow="0"
     inkscape:pageopacity="0"
     inkscape:pagecheckerboard="1"
     inkscape:deskcolor="#d1d1d1"
     inkscape:zoom="30.791667"
     inkscape:cx="12"
     inkscape:cy="12"
     inkscape:window-width="1920"
     inkscape:window-height="1015"
     inkscape:window-x="0"
     inkscape:window-y="0"
     inkscape:window-maximized="1"
     inkscape:current-layer="svg1" />
  <path
     d="M160-120q-17 0-28.5-11.5T120-160q0-17 11.5-28.5T160-200h40v-240h-40q-17 0-28.5-11.5T120-480q0-17 11.5-28.5T160-520h40v-240h-40q-17 0-28.5-11.5T120-800q0-17 11.5-28.5T160-840h640q17 0 28.5 11.5T840-800q0 17-11.5 28.5T800-760h-40v240h40q17 0 28.5 11.5T840-480q0 17-11.5 28.5T800-440h-40v240h40q17 0 28.5 11.5T840-160q0 17-11.5 28.5T800-120H160Zm120-80h400v-240q-17 0-28.5-11.5T640-480q0-17 11.5-28.5T680-520v-240H280v240q17 0 28.5 11.5T320-480q0 17-11.5 28.5T280-440v240Zm200-120q50 0 85-34.5t35-83.5q0-39-22.5-67T480-620q-75 86-97.5 114.5T360-438q0 49 35 83.5t85 34.5ZM280-200v-560 560Z"
     id="path1"
     style="fill:#000000" />
</svg>
