<svg
	version="1.1"
	id="scythe"
	x="0px"
	y="0px"
	viewBox="0 0 40 39.41203"
	xml:space="preserve"
	width="40"
	height="39.412029"
	xmlns:sodipodi="http://sodipodi.sourceforge.net/DTD/sodipodi-0.dtd"
	xmlns:svg="http://www.w3.org/2000/svg"
	xmlns="http://www.w3.org/2000/svg">
	<path
		id="scythe_path"
		fill="#ffffff"
		class="st0"
		d="M 22.323841,1.2116251e-5 C 14.045229,0.00711281 6.8615379,3.135369 4.9466428,4.0567678 L 8.6359244,10.66301 C 21.265639,3.6255761 30.323325,2.7813442 35.633901,3.3238945 31.295899,0.84817577 26.660256,-0.00370692 22.323841,1.2116251e-5 Z M 23.081627,1.5425753 c 0.230076,0.059676 0.390483,0.1988098 0.400693,0.3487896 0.0102,0.1499798 -0.05884,0.2313242 -0.128719,0.3114196 -0.06989,0.080095 -0.140679,0.1600324 -0.290659,0.1702423 C 18.02328,2.4900766 13.035445,3.3568915 8.2580687,5.1135166 8.1881885,5.193612 7.9580602,5.1340746 7.867756,4.9142083 7.777456,4.694343 7.9169187,4.5325291 8.0566844,4.3723394 12.903946,2.5356178 17.961871,1.5897396 23.081627,1.5425753 Z M 2.210306,2.8360036 C 2.0213649,2.8488656 1.8263244,2.9043318 1.635218,3.0020939 1.0557154,3.3428942 0.80652898,4.1125603 1.1473281,4.6920629 L 1.5687819,5.341891 15.553585,30.382079 c 0.729483,-0.351009 1.448375,-0.853145 2.177859,-1.204155 L 9.4207008,14.451944 3.335567,3.6394661 C 3.3151472,3.3395043 3.2362423,3.2705851 3.0760515,3.1308141 2.8257543,2.9124222 2.5252058,2.8145676 2.210306,2.8360036 Z M 32.756387,4.2685321 C 27.465168,4.2754415 19.563329,5.7538906 9.0781391,11.6118 l 0.9508669,1.818688 C 25.786312,4.7487356 35.85864,5.4947164 40,6.5688832 39.349029,5.8598196 38.556826,5.311526 37.766085,4.762651 36.497308,4.488812 34.826864,4.265813 32.756387,4.2685321 Z M 0.87950666,6.2927577 0.52033707,6.5439702 c -0.21986635,0.0903 -0.36040584,0.2503834 -0.4899669,0.560554 -0.05967558,0.2300751 -0.0376932,0.5308192 0.12249226,0.6705902 L 3.4103081,13.57997 4.5687882,12.896924 Z m 4.20000844,7.4740633 -1.158479,0.68097 0.602077,1.089968 c 0.0903,0.219867 0.3304788,0.43029 0.560555,0.489966 0.2300741,0.05968 0.4507228,-0.03218 0.6705892,-0.122491 L 6.1134279,15.656098 Z M 18.221411,29.74886 c -0.79937,0.431104 -1.516888,0.932038 -2.246372,1.283048 l 0.851213,1.449137 2.42907,-0.844984 z m 1.374396,2.466441 c -0.799369,0.431104 -1.60911,0.713342 -2.418689,0.994465 l 1.283047,2.248447 2.167479,-1.353635 z m 1.463672,2.688586 -2.167479,1.353636 1.112805,1.957789 c 0.639178,-0.570874 1.277962,-1.141228 1.997235,-1.642217 z m 1.293427,2.397929 c -0.649388,0.420895 -1.289543,0.99245 -1.928724,1.563325 0.09031,0.219866 0.250385,0.358328 0.560555,0.48789 0.310172,0.129561 0.679801,0.02923 0.969552,-0.141177 0.579503,-0.340798 0.82869,-1.110465 0.487891,-1.689968 z"
		style="stroke-width:1.06298"
	/>
</svg>
