<?xml version="1.0" encoding="UTF-8" standalone="no"?>
<!-- Created with Inkscape (http://www.inkscape.org/) -->

<svg
   width="162.97253mm"
   height="100.81258mm"
   viewBox="0 0 162.97254 100.81258"
   version="1.1"
   id="svg1"
   xml:space="preserve"
   inkscape:version="1.3.2 (091e20ef0f, 2023-11-25, custom)"
   sodipodi:docname="wings.svg"
   xmlns:inkscape="http://www.inkscape.org/namespaces/inkscape"
   xmlns:sodipodi="http://sodipodi.sourceforge.net/DTD/sodipodi-0.dtd"
   xmlns="http://www.w3.org/2000/svg"
   xmlns:svg="http://www.w3.org/2000/svg"><sodipodi:namedview
     id="namedview1"
     pagecolor="#505050"
     bordercolor="#ffffff"
     borderopacity="1"
     inkscape:showpageshadow="0"
     inkscape:pageopacity="0"
     inkscape:pagecheckerboard="1"
     inkscape:deskcolor="#d1d1d1"
     inkscape:document-units="mm"
     inkscape:zoom="0.79874535"
     inkscape:cx="457.59265"
     inkscape:cy="190.92443"
     inkscape:window-width="1920"
     inkscape:window-height="1015"
     inkscape:window-x="0"
     inkscape:window-y="0"
     inkscape:window-maximized="1"
     inkscape:current-layer="svg1" /><defs
     id="defs1" /><path
     id="path1"
     style="fill:#000000;stroke-width:0.780099"
     d="m 0.04075928,0.00714883 c -0.466099,0.255304 3.15720302,6.64349097 6.16945002,10.87737117 3.384123,4.75659 9.6796497,11.94675 13.5980727,15.53032 2.855847,2.61179 4.170152,3.42811 6.239892,3.87521 5.389019,1.16416 6.81298,1.46668 9.037185,1.9203 2.29653,0.46837 4.120501,0.85447 9.875265,2.09083 1.2398,0.26636 4.6695,0.99178 7.62141,1.61179 2.9519,0.62002 6.6229,1.40553 8.15789,1.74563 3.28785,0.72847 3.97457,0.80646 3.96307,0.4501 -0.0235,-0.72611 -2.60182,-7.76799 -3.40581,-9.30176 -1.54902,-2.95505 -2.43394,-3.61913 -7.96386,-5.97534 -1.47595,-0.62889 -4.22929,-1.81767 -6.11851,-2.6417 -1.88923,-0.82403 -4.642549,-2.01407 -6.118505,-2.6448 C 39.620352,16.91436 37.047331,15.79146 35.37845,15.04964 33.70957,14.30782 31.970627,13.55609 31.514132,13.37946 31.057644,13.20283 28.945279,12.30423 26.819906,11.38268 18.77813,7.8958498 15.658653,6.5482698 10.503791,4.3345298 c -1.0626867,-0.45637 -2.8740877,-1.23924 -4.0253317,-1.73994 -1.151243,-0.5007 -3.024225,-1.313202 -4.16213,-1.80557697 -1.137905,-0.492375 -2.16184002,-0.844154 -2.27557002,-0.781864 z m 162.89101072,0 c -0.11373,-0.06229 -1.13767,0.289489 -2.27557,0.781864 -1.13791,0.49237497 -3.01088,1.30487697 -4.16213,1.80557697 -1.15124,0.5007 -2.96265,1.28357 -4.02533,1.73994 -5.15486,2.21374 -8.27434,3.56132 -16.31612,7.0481502 -2.12537,0.92155 -4.23774,1.82015 -4.69422,1.99678 -0.4565,0.17663 -2.19544,0.92836 -3.86432,1.67018 -1.66888,0.74182 -4.24191,1.86472 -5.71786,2.49546 -1.47596,0.63073 -4.22928,1.82077 -6.11851,2.6448 -1.88921,0.82403 -4.64255,2.01281 -6.1185,2.6417 -5.52993,2.35621 -6.41453,3.02029 -7.96355,5.97534 -0.804,1.53377 -3.382616,8.57565 -3.406116,9.30176 -0.0115,0.35636 0.67522,0.27837 3.963056,-0.4501 1.53499,-0.3401 5.20599,-1.12561 8.1579,-1.74563 2.95191,-0.62001 6.3816,-1.34543 7.6214,-1.61179 5.75477,-1.23636 7.57906,-1.62246 9.87559,-2.09083 2.22419,-0.45362 3.64785,-0.75614 9.03687,-1.9203 2.06973,-0.4471 3.38435,-1.26342 6.2402,-3.87521 3.91842,-3.58357 10.21364,-10.77373 13.59776,-15.53032 3.01224,-4.2338802 6.63555,-10.62206717 6.16945,-10.87737117 z M 14.173761,31.31738 l 0.848464,1.44591 c 1.156307,1.97022 5.553665,7.76673 8.0406,10.59884 4.533777,5.16305 8.337733,8.48373 11.453012,9.99783 2.049805,0.99626 3.558459,1.07174 10.874367,0.54364 2.65672,-0.19178 7.82504,-0.51511 11.48541,-0.7183 9.47446,-0.52595 12.12977,-0.76835 12.12977,-1.10743 0,-0.93205 -2.30275,-7.03199 -3.14039,-8.31887 -1.11597,-1.71448 -1.74052,-2.05222 -5.08387,-2.75177 -2.34102,-0.48983 -5.10757,-1.07952 -9.91646,-2.11253 -1.29885,-0.279 -3.52104,-0.75526 -4.93796,-1.05834 -1.416912,-0.30308 -3.638792,-0.77933 -4.937629,-1.05833 -1.298837,-0.27901 -3.520716,-0.75525 -4.937637,-1.05833 -2.832807,-0.60593 -6.220031,-1.33168 -9.929047,-2.12752 -1.328207,-0.28499 -3.501889,-0.74741 -4.830397,-1.02785 -1.328509,-0.28045 -3.091561,-0.67247 -3.918095,-0.87126 -0.826534,-0.19879 -1.884924,-0.36445 -2.351674,-0.36845 z m 134.625009,0 -0.84847,0.007 c -0.46675,0.004 -1.52482,0.16966 -2.35136,0.36845 -0.82653,0.19879 -2.5899,0.59081 -3.91841,0.87126 -1.32851,0.28044 -3.50219,0.74286 -4.83039,1.02785 -3.70902,0.79584 -7.09593,1.52159 -9.92873,2.12752 -1.41692,0.30308 -3.63912,0.77932 -4.93796,1.05833 -1.29883,0.279 -3.52072,0.75525 -4.93763,1.05833 -1.41691,0.30308 -3.63879,0.77934 -4.93764,1.05834 -4.80889,1.03301 -7.57543,1.6227 -9.91646,2.11253 -3.343346,0.69955 -3.968206,1.03729 -5.084186,2.75177 -0.83763,1.28688 -3.14038,7.38682 -3.14038,8.31887 0,0.33908 2.65531,0.58148 12.129766,1.10743 3.66036,0.20319 8.829,0.52652 11.48571,0.7183 7.31591,0.5281 8.82426,0.45262 10.87406,-0.54364 3.11528,-1.5141 6.91924,-4.83478 11.45301,-9.99783 2.48694,-2.83211 6.88429,-8.62862 8.0406,-10.59884 z M 66.893964,55.70814 c -1.65131,0.0302 -4.48567,0.24295 -9.58878,0.65784 -4.57044,0.37158 -11.46002,0.88294 -18.999558,1.40974 -9.403463,0.65703 -10.948904,0.80133 -10.948904,1.02267 0,0.69191 5.950782,5.8951 9.446006,8.25945 2.079758,1.40684 5.08624,2.96969 6.977347,3.62665 1.844969,0.64094 3.852759,0.40292 7.406609,-0.87747 1.7121,-0.61684 3.54745,-1.26723 4.0788,-1.44539 0.53134,-0.17815 1.88406,-0.65495 3.00578,-1.05936 1.12173,-0.40441 2.76396,-0.98039 3.64953,-1.28003 0.88557,-0.29963 2.18978,-0.74706 2.89824,-0.99425 0.70846,-0.24719 2.54412,-0.88175 4.07911,-1.41025 1.53499,-0.52851 2.86221,-1.07306 2.9495,-1.21027 0.30077,-0.47279 -1.73237,-5.64076 -2.46363,-6.26215 -0.3705,-0.31483 -0.83873,-0.46737 -2.49005,-0.43718 z m 29.1846,0 c -1.65131,-0.0302 -2.11923,0.12235 -2.48973,0.43718 -0.73126,0.62139 -2.76472,5.78936 -2.46394,6.26215 0.0873,0.13721 1.41482,0.68176 2.94981,1.21027 1.53499,0.5285 3.37034,1.16306 4.07879,1.41025 0.70846,0.24719 2.012666,0.69462 2.898236,0.99425 0.88558,0.29964 2.52812,0.87562 3.64985,1.28003 1.12172,0.40441 2.47412,0.88121 3.00547,1.05936 0.53134,0.17816 2.36701,0.82855 4.07911,1.44539 3.55385,1.28039 5.56164,1.51841 7.40661,0.87747 1.8911,-0.65696 4.89727,-2.21981 6.97703,-3.62665 3.49522,-2.36435 9.44632,-7.56754 9.44632,-8.25945 0,-0.22134 -1.54544,-0.36564 -10.9489,-1.02267 -7.53955,-0.5268 -14.42912,-1.03816 -18.99956,-1.40974 -5.10311,-0.41489 -7.937786,-0.62765 -9.589096,-0.65784 z m -24.48094,9.04596 c -0.95359,0.0965 -2.51357,0.4743 -3.17026,0.81804 -0.96364,0.50442 -1.12612,1.66206 -1.11042,7.90236 0.014,5.55277 -0.36259,21.83868 -0.58525,25.31163 -0.0715,1.11566 -0.048,2.02724 0.0522,2.02624 0.74086,-0.009 3.60471,-4.54976 4.92285,-7.8047 1.01841,-2.51478 3.11176,-8.84975 3.95583,-11.97084 0.66673,-2.46535 0.7242,-6.23716 0.12328,-8.0915 -0.9639,-2.97442 -3.13656,-8.06457 -3.4926,-8.18244 -0.12724,-0.0421 -0.37777,-0.041 -0.69563,-0.009 z m 19.77728,0 c -0.31787,-0.0322 -0.56839,-0.0333 -0.69563,0.009 -0.35605,0.11787 -2.52871,5.20802 -3.4926,8.18244 -0.60092,1.85434 -0.54345,5.62615 0.12327,8.0915 0.84407,3.12109 2.93775,9.45606 3.95615,11.97084 1.31813,3.25494 4.182,7.79524 4.92285,7.8047 0.10015,0.001 0.12343,-0.91058 0.0519,-2.02624 -0.22266,-3.47295 -0.59924,-19.75886 -0.58525,-25.31163 0.0157,-6.2403 -0.14678,-7.39794 -1.11042,-7.90236 -0.65669,-0.34374 -2.21667,-0.72156 -3.17026,-0.81804 z m -25.58979,2.30477 -1.87838,0.4346 c -2.40956,0.55725 -2.99542,0.80274 -3.93728,1.65003 -1.04636,0.9413 -1.36958,1.97402 -2.02682,6.47557 -0.95066,6.51121 -2.45588,16.86178 -2.57369,17.69918 -0.16297,1.15834 0.40744,1.03268 2.27399,-0.50178 3.6374,-2.99023 6.40077,-9.71135 7.68273,-18.68413 0.25262,-1.76813 0.45945,-4.08271 0.45945,-5.14387 z m 31.4023,0 v 1.9296 c 0,1.06116 0.20684,3.37574 0.45946,5.14387 1.28195,8.97278 4.045636,15.6939 7.683026,18.68413 1.86656,1.53446 2.43665,1.66012 2.27369,0.50178 -0.11781,-0.8374 -1.62273,-11.18797 -2.57338,-17.69918 -0.65724,-4.50155 -0.98046,-5.53427 -2.02682,-6.47557 -0.94186,-0.84729 -1.52772,-1.09278 -3.937276,-1.65003 z m -40.46464,3.47421 c -0.67036,0.0275 -2.85204,1.14498 -4.05867,2.13578 -1.54927,1.27217 -2.47656,3.01393 -3.58977,6.74326 -1.18521,3.97046 -1.96676,6.94119 -1.96676,7.47448 0,0.47548 1.0315,0.22823 2.26614,-0.54312 2.04112,-1.27521 4.62188,-5.10008 6.06504,-8.9886 0.71436,-1.9248 1.68947,-6.40566 1.47176,-6.76341 -0.0268,-0.0441 -0.092,-0.0623 -0.18774,-0.0584 z m 49.526986,0 c -0.0958,-0.004 -0.1606,0.0143 -0.18743,0.0584 -0.21771,0.35775 0.75709,4.83861 1.47145,6.76341 1.44315,3.88852 4.02392,7.71339 6.06503,8.9886 1.23464,0.77135 2.26614,1.0186 2.26614,0.54312 0,-0.53329 -0.78155,-3.50402 -1.96675,-7.47448 -1.11321,-3.72933 -2.0405,-5.47109 -3.58978,-6.74326 -1.20663,-0.9908 -3.38831,-2.10824 -4.05866,-2.13578 z"
     inkscape:label="wings" /></svg>
