<?xml version="1.0" encoding="UTF-8" standalone="no"?>
<svg
   height="24px"
   viewBox="0 -960 960 960"
   width="24px"
   fill="#e8eaed"
   version="1.1"
   id="svg1"
   sodipodi:docname="worker.svg"
   inkscape:version="1.3.2 (091e20ef0f, 2023-11-25, custom)"
   xmlns:inkscape="http://www.inkscape.org/namespaces/inkscape"
   xmlns:sodipodi="http://sodipodi.sourceforge.net/DTD/sodipodi-0.dtd"
   xmlns="http://www.w3.org/2000/svg"
   xmlns:svg="http://www.w3.org/2000/svg">
  <defs
     id="defs1" />
  <sodipodi:namedview
     id="namedview1"
     pagecolor="#505050"
     bordercolor="#ffffff"
     borderopacity="1"
     inkscape:showpageshadow="0"
     inkscape:pageopacity="0"
     inkscape:pagecheckerboard="1"
     inkscape:deskcolor="#d1d1d1"
     inkscape:zoom="11.718313"
     inkscape:cx="5.3762005"
     inkscape:cy="10.28305"
     inkscape:window-width="1920"
     inkscape:window-height="1015"
     inkscape:window-x="0"
     inkscape:window-y="0"
     inkscape:window-maximized="1"
     inkscape:current-layer="svg1" />
  <path
     id="path1"
     d="M 480 -901.17188 C 476.3043 -901.17188 472.81292 -900.89458 469.45312 -900.39062 C 466.09343 -899.88666 462.86755 -899.13293 459.84375 -898.125 L 459.84375 -870.9375 C 459.84375 -867.91372 458.87915 -865.44159 457.03125 -863.59375 C 455.18345 -861.74587 452.78932 -860.85938 449.76562 -860.85938 C 446.74183 -860.85938 444.26967 -861.74587 442.42188 -863.59375 C 440.57398 -865.44159 439.6875 -867.91372 439.6875 -870.9375 L 439.6875 -890.07812 C 427.59231 -883.02263 417.86024 -873.42325 410.46875 -861.32812 C 403.07736 -849.23298 399.375 -835.66579 399.375 -820.54688 L 394.29688 -820.54688 C 391.27308 -820.54688 388.87915 -819.58224 387.03125 -817.73438 C 385.18335 -815.88651 384.21875 -813.49253 384.21875 -810.46875 C 384.21875 -807.44496 385.18335 -804.97287 387.03125 -803.125 C 388.87915 -801.27713 391.27308 -800.39062 394.29688 -800.39062 L 399.375 -800.39062 C 399.375 -778.21622 407.25599 -759.22836 423.04688 -743.4375 C 438.83766 -727.64665 457.82562 -719.76562 480 -719.76562 C 502.17438 -719.76562 521.16224 -727.64665 536.95312 -743.4375 C 552.74391 -759.22836 560.625 -778.21622 560.625 -800.39062 L 565.70312 -800.39062 C 568.72692 -800.39062 571.12085 -801.27713 572.96875 -803.125 C 574.81665 -804.97287 575.78125 -807.44496 575.78125 -810.46875 C 575.78125 -813.49253 574.81665 -815.88651 572.96875 -817.73438 C 571.12085 -819.58224 568.72692 -820.54688 565.70312 -820.54688 L 560.625 -820.54688 C 560.625 -835.66579 556.92264 -849.23298 549.53125 -861.32812 C 542.13976 -873.42325 532.40769 -883.02263 520.3125 -890.07812 L 520.3125 -870.9375 C 520.3125 -867.91372 519.42602 -865.44159 517.57812 -863.59375 C 515.73033 -861.74587 513.25807 -860.85938 510.23438 -860.85938 C 507.21058 -860.85938 504.81655 -861.74587 502.96875 -863.59375 C 501.12085 -865.44159 500.15625 -867.91372 500.15625 -870.9375 L 500.15625 -898.125 C 497.13245 -899.13293 493.90657 -899.88666 490.54688 -900.39062 C 487.18708 -900.89458 483.6957 -901.17188 480 -901.17188 z M 439.6875 -800.39062 L 520.3125 -800.39062 C 520.3125 -789.30342 516.33289 -779.77043 508.4375 -771.875 C 500.54201 -763.97957 491.08719 -760.07812 480 -760.07812 C 468.91281 -760.07812 459.45799 -763.97957 451.5625 -771.875 C 443.66711 -779.77043 439.6875 -789.30342 439.6875 -800.39062 z M 400 -680 C 378.00002 -680 359.18228 -672.15103 343.51562 -656.48438 C 327.84897 -640.81772 320 -621.99998 320 -600 L 320 -360 L 400 -360 L 400 -80 L 560 -80 L 560 -360 L 640 -360 L 640 -600 C 640 -621.99998 632.15103 -640.81772 616.48438 -656.48438 C 600.81772 -672.15103 581.99998 -680 560 -680 L 400 -680 z "
     style="fill:#000000" />
</svg>
